#!OML:ASF E:\motion texture\Top Level 1\Subject 1\Session 1\male.ASF
:FULLY-SPECIFIED
:DEGREES
504
root -3.54194 17.6387 4.37552 680.988 -103.47 -675.11
lowerback -4.80828 3.87325 7.61072
upperback -4.051 4.74367 2.56435
thorax -1.11018 2.16872 -1.39627
lowerneck -17.0048 -4.56143 -6.62943
upperneck 15.4257 -5.90379 6.72103
head 7.97033 -2.57426 2.61032
rclavicle 1.33558e-015 -3.97569e-016
rhumerus -14.387 20.2825 -86.7899
rradius 72.3942
rwrist -7.99102
rhand -18.5715 -13.1752
rfingers 7.12502
rthumb 7.71876 -43.0143
lclavicle 1.33558e-015 -3.97569e-016
lhumerus -54.3321 -1.85823 77.1551
lradius 37.0559
lwrist -8.1443
lhand -12.5651 8.10421
lfingers 7.12502
lthumb 13.5124 37.6458
rfemur 6.68887 4.15946 32.8481
rtibia 27.0164
rfoot 168.088 -176.347
rtoes -3.6979
lfemur -37.5677 6.47685 -9.97262
ltibia 48.0581
lfoot 538.591 178.074
ltoes -9.43185
505
root -3.73264 17.6141 4.39656 682.581 -103.107 -676.656
lowerback -5.0667 3.74864 7.19139
upperback -4.18373 4.57348 2.45123
thorax -1.13778 2.0878 -1.28063
lowerneck -17.0455 -4.45246 -6.45254
upperneck 15.6658 -5.79762 6.63605
head 8.04155 -2.52071 2.56653
rclavicle 6.02566e-016 3.51352e-014
rhumerus -16.9257 20.2439 -87.7028
rradius 71.696
rwrist -7.81173
rhand -18.5707 -13.2043
rfingers 7.12502
rthumb 7.71954 -43.0434
lclavicle 6.02566e-016 3.51352e-014
lhumerus -53.3544 -1.63205 78.5081
lradius 37.1817
lwrist -7.61103
lhand -12.7394 8.45438
lfingers 7.12502
lthumb 13.3444 38.0071
rfemur 5.74894 3.65295 31.7626
rtibia 29.456
rfoot 169.342 -175.594
rtoes -4.27213
lfemur -35.156 5.66255 -10.6759
ltibia 45.707
lfoot 535.468 178.426
ltoes -8.75041
506
root -3.91594 17.5959 4.41742 684.134 -102.583 -678.235
lowerback -5.20447 3.56311 6.64291
upperback -4.28337 4.3422 2.32356
thorax -1.20803 1.98049 -1.11909
lowerneck -17.1463 -4.35034 -6.27212
upperneck 15.9089 -5.69838 6.55288
head 8.12518 -2.46855 2.52115
rclavicle -3.86077e-014 -5.54112e-014
rhumerus -19.4444 20.0989 -88.556
rradius 70.9074
rwrist -7.59226
rhand -18.5845 -13.2008
rfingers 7.12502
rthumb 7.70625 -43.0404
lclavicle -3.86077e-014 -5.54112e-014
lhumerus -52.2135 -1.42643 79.9145
lradius 37.3018
lwrist -7.07268
lhand -12.9712 8.79364
lfingers 7.12502
lthumb 13.121 38.3609
rfemur 4.56141 3.00307 30.5448
rtibia 32.2798
rfoot 171.141 -174.932
rtoes -4.59171
lfemur -33.0112 4.94222 -11.6419
ltibia 43.5954
lfoot 532.996 179.052
ltoes -7.08259
507
root -4.08998 17.5848 4.43782 685.626 -101.884 -679.833
lowerback -5.21144 3.31545 5.96898
upperback -4.33778 4.04682 2.18263
thorax -1.3117 1.84613 -0.910955
lowerneck -17.3103 -4.26303 -6.10675
upperneck 16.1346 -5.61474 6.49026
head 8.21683 -2.42111 2.48238
rclavicle -2.27981e-014 -7.40473e-015
rhumerus -21.9076 19.8352 -89.3189
rradius 70.0192
rwrist -7.32097
rhand -18.6343 -13.2238
rfingers 7.12502
rthumb 7.65816 -43.0651
lclavicle -2.27981e-014 -7.40473e-015
lhumerus -50.8961 -1.27848 81.3864
lradius 37.4434
lwrist -6.52747
lhand -13.2916 9.07486
lfingers 7.12502
lthumb 12.8121 38.6617
rfemur 3.13574 2.20109 29.2144
rtibia 35.4556
rfoot 173.541 -174.441
rtoes -4.46677
lfemur -31.136 4.27717 -12.8112
ltibia 41.7468
lfoot 531.239 179.73
ltoes -4.87728
508
root -4.25359 17.5802 4.45812 687.069 -101.033 -681.448
lowerback -5.0918 3.01833 5.2084
upperback -4.34366 3.69878 2.02879
thorax -1.43742 1.68974 -0.673933
lowerneck -17.5276 -4.19878 -5.97968
upperneck 16.3162 -5.55589 6.47204
head 8.30772 -2.38209 2.46098
rclavicle -1.74496e-014 -2.85753e-014
rhumerus -24.2969 19.4226 -89.9718
rradius 69.0321
rwrist -7.00549
rhand -18.7199 -13.2534
rfingers 7.12502
rthumb 7.57552 -43.0978
lclavicle -1.74496e-014 -2.85753e-014
lhumerus -49.3969 -1.23174 82.9279
lradius 37.6291
lwrist -5.96873
lhand -13.7427 9.24604
lfingers 7.12502
lthumb 12.3772 38.8596
rfemur 1.47647 1.27523 27.8149
rtibia 38.9473
rfoot 176.514 -174.19
rtoes -3.79934
lfemur -29.5209 3.60399 -14.0921
ltibia 40.1649
lfoot 530.092 180.284
ltoes -2.88871
509
root -4.40793 17.5811 4.47759 688.35 -100.063 -682.977
lowerback -4.85433 2.68461 4.40817
upperback -4.28926 3.30862 1.87225
thorax -1.56369 1.51586 -0.419928
lowerneck -17.7804 -4.16324 -5.89913
upperneck 16.4358 -5.52916 6.50659
head 8.3895 -2.35499 2.4604
rclavicle -1.38295e-015 -3.97569e-015
rhumerus -26.6001 18.8611 -90.4929
rradius 67.9565
rwrist -6.6834
rhand -18.8329 -13.3061
rfingers 7.12502
rthumb 7.46647 -43.1543
lclavicle -1.38295e-015 -3.97569e-015
lhumerus -47.736 -1.3486 84.547
lradius 37.9047
lwrist -5.36847
lhand -14.2515 9.38316
lfingers 7.12502
lthumb 11.8866 39.0257
rfemur -0.360118 0.273427 26.4263
rtibia 42.6965
rfoot 179.859 -174.236
rtoes -2.47312
lfemur -28.098 2.88025 -15.3757
ltibia 38.8687
lfoot 529.332 180.636
ltoes -1.29227
510
root -4.55374 17.5859 4.49625 689.424 -99.0363 -684.357
lowerback -4.52302 2.33932 3.62869
upperback -4.17694 2.90255 1.72016
thorax -1.6749 1.33548 -0.171294
lowerneck -18.0473 -4.15852 -5.87313
upperneck 16.4714 -5.53679 6.60312
head 8.45149 -2.341 2.48491
rclavicle -2.02516e-014 2.94015e-014
rhumerus -28.8147 18.1358 -90.8739
rradius 66.8152
rwrist -6.38171
rhand -18.9788 -13.3623
rfingers 7.12502
rthumb 7.32566 -43.2155
lclavicle -2.02516e-014 2.94015e-014
lhumerus -45.9372 -1.66814 86.2268
lradius 38.3019
lwrist -4.71214
lhand -14.7742 9.47204
lfingers 7.12502
lthumb 11.3826 39.1431
rfemur -2.36127 -0.743941 25.1204
rtibia 46.6701
rfoot 183.194 -174.451
rtoes -0.743392
lfemur -26.83 2.11472 -16.576
ltibia 37.8616
lfoot 528.815 180.736
ltoes -0.170376
511
root -4.69269 17.5926 4.51429 690.288 -98.0113 -685.575
lowerback -4.12339 2.00357 2.91138
upperback -4.00738 2.50404 1.57838
thorax -1.7558 1.15868 0.0574276
lowerneck -18.3024 -4.18271 -5.89067
upperneck 16.4082 -5.57595 6.7461
head 8.48303 -2.34033 2.52799
rclavicle -1.45687e-014 -2.39287e-014
rhumerus -30.9412 17.2661 -91.107
rradius 65.6362
rwrist -6.13925
rhand -19.0988 -13.41
rfingers 7.12502
rthumb 7.20976 -43.2672
lclavicle -1.45687e-014 -2.39287e-014
lhumerus -44.0343 -2.21224 87.9404
lradius 38.8472
lwrist -4.00194
lhand -15.2954 9.47963
lfingers 7.12502
lthumb 10.8798 39.1778
rfemur -4.49532 -1.71535 23.9452
rtibia 50.8354
rfoot 186.143 -174.696
rtoes 1.28154
lfemur -25.6479 1.32632 -17.6467
ltibia 37.0891
lfoot 528.422 180.587
ltoes 0.526089
512
root -4.82657 17.5999 4.53143 690.966 -97.0394 -686.644
lowerback -3.68115 1.69297 2.27957
upperback -3.78993 2.13162 1.45074
thorax -1.80209 0.993229 0.258112
lowerneck -18.5313 -4.22717 -5.94624
upperneck 16.2534 -5.6361 6.93072
head 8.48299 -2.34865 2.58855
rclavicle -1.74247e-015 -3.72721e-015
rhumerus -32.9995 16.2754 -91.2024
rradius 64.4696
rwrist -5.9721
rhand -19.2028 -13.4406
rfingers 7.12502
rthumb 7.10939 -43.3012
lclavicle -1.74247e-015 -3.72721e-015
lhumerus -42.0684 -2.98349 89.6484
lradius 39.56
lwrist -3.22866
lhand -15.7632 9.42504
lfingers 7.12502
lthumb 10.4286 39.1464
rfemur -6.74714 -2.58532 22.9336
rtibia 55.156
rfoot 188.377 -174.893
rtoes 3.39828
lfemur -24.4927 0.564422 -18.5675
ltibia 36.443
lfoot 528.094 180.246
ltoes 1.00695
513
root -4.95705 17.6071 4.54733 691.61 -96.1521 -687.701
lowerback -3.22476 1.41625 1.72406
upperback -3.5344 1.79657 1.33838
thorax -1.81007 0.844305 0.437154
lowerneck -18.7313 -4.2819 -6.01991
upperneck 16.0256 -5.70492 7.13279
head 8.45509 -2.36149 2.65676
rclavicle -6.71209e-015 7.45443e-015
rhumerus -34.9957 15.2037 -91.1691
rradius 63.354
rwrist -5.88831
rhand -19.2945 -13.4275
rfingers 7.12502
rthumb 7.02083 -43.291
lclavicle -6.71209e-015 7.45443e-015
lhumerus -40.0768 -3.95597 91.3083
lradius 40.4657
lwrist -2.40446
lhand -16.0905 9.42647
lfingers 7.12502
lthumb 10.1128 39.1635
rfemur -9.11289 -3.32626 22.0817
rtibia 59.5976
rfoot 189.743 -174.997
rtoes 5.3638
lfemur -23.3156 -0.107869 -19.3626
ltibia 35.8195
lfoot 527.811 179.785
ltoes 1.37768
514
root -5.08435 17.6147 4.56165 692.511 -95.3553 -689.016
lowerback -2.77036 1.17294 1.21521
upperback -3.25561 1.49923 1.23765
thorax -1.78828 0.712117 0.606534
lowerneck -18.9107 -4.3345 -6.09229
upperneck 15.7486 -5.76707 7.33015
head 8.40653 -2.37251 2.72394
rclavicle 1.86361e-016 2.04251e-014
rhumerus -36.937 14.0992 -91.0215
rradius 62.3279
rwrist -5.87222
rhand -19.3295 -13.3904
rfingers 7.12502
rthumb 6.98708 -43.2551
lclavicle 1.86361e-016 2.04251e-014
lhumerus -38.0848 -5.09661 92.881
lradius 41.5765
lwrist -1.53833
lhand -16.3535 9.44351
lfingers 7.12502
lthumb 9.85912 39.1927
rfemur -11.6138 -3.94105 21.3597
rtibia 64.1378
rfoot 190.218 -174.991
rtoes 6.99092
lfemur -22.1003 -0.653575 -20.0813
ltibia 35.1565
lfoot 527.565 179.288
ltoes 1.7511
